<svg version="1.1" id="Layer_1" xmlns="http://www.w3.org/2000/svg" xmlns:xlink="http://www.w3.org/1999/xlink" x="0px" y="0px"
	 width="100%" viewBox="0 0 184 145" enable-background="new 0 0 184 145" xml:space="preserve">
<path fill="#FCE9E5" opacity="1.000000" stroke="none" 
	d="
M185.000000,44.000000 
	C185.000000,54.354229 185.000000,64.708458 184.666229,75.581665 
	C184.554962,77.067093 184.777481,78.033546 185.000000,79.000000 
	C185.000000,90.020897 185.000000,101.041786 184.608276,112.531258 
	C182.907303,113.152382 181.598038,113.304939 180.288773,113.457489 
	C180.271729,114.118073 180.254684,114.778656 180.237625,115.439232 
	C181.825089,115.626160 183.412537,115.813080 185.000000,116.000000 
	C185.000000,125.940498 185.000000,135.880997 185.000000,146.000000 
	C170.646271,146.000000 156.291794,146.000000 141.508270,145.647980 
	C142.111633,144.003586 143.144043,142.711197 144.270233,141.301422 
	C143.714722,140.226776 142.856522,138.566574 142.206375,136.626465 
	C150.987366,131.997681 146.392487,124.221497 147.834930,117.562057 
	C145.832733,117.562057 144.437134,117.562057 142.539597,117.562057 
	C142.539597,121.183037 142.571396,124.645256 142.530945,128.106628 
	C142.487778,131.799255 140.188843,132.964706 136.940521,132.799088 
	C133.882370,132.643143 131.990250,131.292969 132.108932,127.854286 
	C132.227692,124.413269 132.135025,120.964958 132.135025,117.319374 
	C130.083481,117.319374 128.613754,117.319374 127.103683,116.991882 
	C127.042427,116.445412 127.021515,116.226433 127.356659,115.966118 
	C132.026459,112.704666 136.336380,109.523903 141.572784,107.816452 
	C142.582367,107.487259 143.204269,105.969185 144.252777,105.000015 
	C144.500549,105.000488 144.996078,105.001221 145.348297,104.997086 
	C147.288498,104.367622 148.977341,103.047272 150.443695,103.260071 
	C153.601364,103.718285 153.737961,103.816063 153.380661,99.994568 
	C154.764481,99.357452 155.773117,98.726151 156.781769,98.094849 
	C156.147156,97.381241 155.512527,96.667633 154.938995,95.572037 
	C159.008911,84.061996 159.468842,72.613907 158.452774,60.993263 
	C159.782837,59.872463 160.743546,58.757793 161.704254,57.643120 
	C160.173981,57.428627 158.643723,57.214127 156.956085,56.655106 
	C153.497025,49.218971 150.195343,42.127361 146.844009,34.713631 
	C145.574905,31.061520 142.907990,28.990835 140.140472,26.576929 
	C116.294304,2.604959 82.561195,-1.614929 55.039394,16.062304 
	C38.302944,26.812111 27.905174,42.037457 24.866869,62.305408 
	C24.416241,64.364258 24.119579,66.122223 23.455658,67.816360 
	C22.027369,66.907127 20.966337,66.061714 19.447716,64.851700 
	C19.020664,67.251381 18.725727,68.908676 18.386280,70.816093 
	C20.549999,70.912254 22.189877,70.985138 23.922998,71.051880 
	C24.016243,71.045731 24.174364,70.946091 24.097713,71.404823 
	C24.974813,78.854240 25.785067,85.870308 27.012829,92.812538 
	C27.237383,94.082260 29.161615,95.051384 30.146374,96.519661 
	C28.317974,100.715889 25.028139,101.856560 21.222240,102.185112 
	C20.498041,102.247635 19.280575,102.337524 19.154198,102.708755 
	C17.645754,107.139839 14.274533,107.341606 10.756325,106.468590 
	C8.687293,110.941940 5.657459,113.535057 1.000000,114.000000 
	C1.000000,103.645775 1.000000,93.291542 1.376788,82.463562 
	C6.164855,79.767548 10.632499,77.643517 14.910569,75.189072 
	C15.402630,74.906754 15.316222,72.309296 14.644084,71.629166 
	C13.766206,70.740875 12.036811,70.694115 10.724929,70.300636 
	C8.923091,75.109215 5.328879,77.032959 1.000000,78.000000 
	C1.000000,67.312439 1.000000,56.624878 1.320974,45.427284 
	C2.095344,44.278011 2.548740,43.638779 3.251179,42.999802 
	C3.500221,43.000057 3.998306,43.000610 4.390049,43.000771 
	C6.840094,41.720196 8.910861,40.458733 10.946010,39.142212 
	C11.345425,38.883831 11.848273,38.056927 11.897752,38.090481 
	C14.403234,39.789440 15.728376,38.715466 15.612000,36.147873 
	C15.591510,35.695827 12.613690,35.377827 10.947975,34.859844 
	C10.808681,34.672733 10.723015,34.623703 10.637348,34.574673 
	C10.757554,34.716976 10.877760,34.859280 10.845958,35.302719 
	C9.127545,37.069096 7.561141,38.534336 5.745906,39.999767 
	C5.497075,39.999962 4.999413,40.000305 4.701278,40.021088 
	C3.933424,40.361389 3.463704,40.680904 2.661493,41.000191 
	C1.886001,40.999977 1.443001,40.999989 1.000000,41.000000 
	C1.000000,30.645771 1.000000,20.291544 1.365913,9.468704 
	C2.821268,8.666418 3.910712,8.332745 5.320203,7.858780 
	C8.199327,6.095259 11.670524,5.199681 11.000000,1.000000 
	C11.000000,1.000000 11.500000,1.000000 11.888243,1.281875 
	C13.184323,1.375834 14.092161,1.187917 15.000000,1.000000 
	C31.687561,1.000000 48.375122,1.000000 65.495605,1.351665 
	C64.145355,3.089840 62.362190,4.476348 60.579025,5.862857 
	C60.044453,6.086282 59.509876,6.309708 58.975300,6.533133 
	C60.318550,7.355874 61.661800,8.178615 63.300781,8.980177 
	C64.062904,8.643256 64.529305,8.327513 65.352982,7.971579 
	C67.473030,6.621556 69.235786,5.311725 71.052109,4.139972 
	C71.191292,4.327093 71.276917,4.376135 71.362534,4.425178 
	C71.242302,4.282966 71.122063,4.140755 71.050888,3.673437 
	C72.733299,2.565553 74.366653,1.782777 76.000000,1.000000 
	C92.687561,1.000000 109.375122,1.000000 126.531357,1.250715 
	C127.000267,1.668574 127.000496,1.835717 126.838150,2.314593 
	C124.599174,3.753810 122.522781,4.881295 120.446106,6.008308 
	C123.221169,9.866421 127.321640,9.005425 129.999725,3.626369 
	C130.000061,2.500608 130.000031,1.750304 130.000000,1.000000 
	C130.750000,1.000000 131.500000,1.000000 132.675232,1.333801 
	C134.066971,1.445068 135.033478,1.222533 136.000000,0.999999 
	C151.333328,1.000000 166.666733,0.981390 181.999878,1.034219 
	C183.269669,1.038594 185.612228,-0.085014 184.653717,3.561274 
	C182.324066,5.810531 182.239807,7.159301 185.000000,8.000000 
	C185.000000,18.354227 185.000000,28.708456 184.602921,39.533134 
	C183.175629,40.719200 182.145432,41.434818 181.115219,42.150436 
	C182.410141,42.766960 183.705078,43.383480 185.000000,44.000000 
M148.424973,29.070740 
	C148.123138,29.482212 147.821304,29.893684 147.519470,30.305161 
	C148.346863,30.203058 149.174255,30.100954 150.511292,30.327158 
	C151.643631,30.013252 152.775955,29.699348 153.908295,29.385443 
	C153.007492,28.000916 152.106705,26.616386 151.205902,25.231861 
	C150.470810,26.487883 149.735718,27.743904 148.424973,29.070740 
M147.771973,137.554398 
	C147.663391,138.139572 147.554810,138.724747 147.446243,139.309921 
	C148.297974,139.206223 149.149719,139.102524 150.506729,139.322662 
	C151.557724,139.286133 152.608719,139.249603 153.659714,139.213074 
	C152.997650,137.629044 152.335602,136.045029 151.673553,134.460999 
	C150.449249,135.306931 149.224930,136.152863 147.771973,137.554398 
M162.195450,133.779633 
	C161.917648,138.207642 164.688614,136.904984 167.301117,136.573517 
	C167.301117,131.734116 167.301117,127.100883 167.301117,122.312653 
	C169.967163,122.115982 172.399780,121.936523 175.128891,121.735199 
	C174.880951,120.055870 174.679916,118.694130 174.507034,117.523087 
	C167.735306,117.523087 161.468384,117.523087 154.894379,117.523087 
	C155.037033,119.219208 155.153152,120.599884 155.291290,122.242500 
	C157.827820,122.242500 159.945877,122.242500 161.995621,122.242500 
	C161.995621,124.362640 161.995621,126.181313 161.294540,128.070740 
	C160.329254,128.918793 159.363953,129.766861 158.398666,130.614914 
	C159.595963,131.409958 160.793274,132.204987 162.195450,133.779633 
M23.346790,28.768127 
	C22.884476,30.240284 22.422159,31.712440 21.606665,34.309231 
	C27.144182,30.377705 33.948467,31.169985 36.640224,24.599960 
	C35.480938,22.731583 34.558784,21.174742 31.749386,23.901375 
	C29.675457,25.914202 26.560606,26.854507 23.346790,28.768127 
M37.904270,20.143253 
	C38.377403,21.419056 38.850533,22.694859 39.323662,23.970663 
	C39.758980,23.828159 40.194298,23.685656 40.629616,23.543150 
	C40.971012,22.208241 41.312412,20.873331 41.796646,18.979919 
	C40.294193,19.352533 39.401356,19.573961 37.904270,20.143253 
M162.405136,20.838881 
	C161.079880,20.803576 159.754639,20.768270 158.429398,20.732962 
	C158.886719,21.721350 159.344040,22.709738 159.801361,23.698124 
	C160.619583,22.952774 161.437805,22.207424 162.405136,20.838881 
M159.063629,95.611305 
	C159.973587,95.464523 160.883560,95.317734 161.793518,95.170952 
	C161.456100,94.329231 161.118683,93.487511 160.781250,92.645798 
	C160.159973,93.428192 159.538696,94.210587 159.063629,95.611305 
M20.567106,29.296387 
	C20.295141,29.011253 20.023176,28.726118 19.751211,28.440983 
	C19.633308,28.553812 19.406624,28.758434 19.413197,28.766224 
	C19.667063,29.067076 19.942255,29.349934 20.567106,29.296387 
z"/>
<path fill="#FCE9E5" opacity="1.000000" stroke="none" 
	d="
M141.998322,136.906387 
	C142.856522,138.566574 143.714722,140.226776 144.270233,141.301422 
	C143.144043,142.711197 142.111633,144.003586 141.039612,145.647980 
	C121.312439,146.000000 101.624878,146.000000 81.467545,145.660217 
	C81.746185,144.073273 82.494591,142.826111 83.467926,141.204102 
	C82.798065,140.274902 81.809967,138.904236 80.559387,137.169479 
	C79.221771,140.487976 78.110886,143.243988 77.000000,146.000000 
	C58.312439,146.000000 39.624878,146.000000 20.502138,145.645966 
	C21.376575,143.862381 22.686190,142.432846 23.997902,141.001648 
	C24.000000,141.000000 24.003246,140.995728 24.372318,140.988403 
	C25.675287,140.145142 26.609182,139.309204 27.543076,138.473267 
	C26.256681,138.125854 24.987703,137.670807 23.679346,137.459122 
	C22.154659,137.212433 20.595539,137.178558 19.012859,137.012878 
	C18.974360,136.973434 18.897535,136.894348 18.980659,136.442642 
	C19.148457,131.658539 19.233133,127.326149 19.482796,122.921173 
	C19.843285,122.688744 19.960968,122.484123 20.434071,122.143951 
	C22.805660,122.053162 24.744009,122.053162 26.483147,122.053162 
	C27.652441,118.064957 26.257610,117.072510 22.944614,117.182045 
	C17.969780,117.346535 12.981368,117.100349 8.036166,116.674622 
	C9.349996,114.677834 10.311415,112.527916 11.968781,111.498878 
	C15.350260,109.399338 19.097452,107.884361 22.711845,106.166130 
	C24.790833,105.177811 26.889677,103.507523 29.005953,103.465279 
	C34.120018,103.363197 35.294621,99.615128 37.423138,96.096909 
	C39.256817,96.030441 40.670826,96.025742 42.547768,95.999527 
	C59.345814,96.001534 75.680939,96.025055 91.953796,96.386063 
	C90.661903,97.651787 89.432266,98.580017 88.472481,99.304543 
	C89.562248,101.182365 90.549194,102.883011 91.791710,105.024048 
	C93.366402,102.387154 94.120987,101.161636 94.837021,99.913994 
	C95.573921,98.630005 96.273209,97.324432 97.458229,96.019119 
	C112.010941,95.987335 126.094383,95.964752 140.612793,95.954102 
	C143.380051,95.925575 145.712372,95.885124 148.466766,95.918289 
	C150.885208,95.979279 152.881561,95.966652 154.877914,95.954025 
	C155.512527,96.667633 156.147156,97.381241 156.781769,98.094849 
	C155.773117,98.726151 154.764481,99.357452 153.257751,99.711014 
	C150.002304,94.968193 148.328522,100.785805 145.974503,100.148262 
	C145.648361,101.765915 145.322220,103.383568 144.996078,105.001221 
	C144.996078,105.001221 144.500549,105.000488 143.981781,104.805557 
	C142.662430,103.507927 141.861847,102.405228 140.868500,101.037003 
	C139.050461,105.818878 136.257034,107.866577 131.419601,106.197403 
	C129.921280,112.251976 125.821472,114.327866 118.583061,113.340034 
	C120.909866,115.781593 122.063919,116.992561 123.094559,118.074028 
	C124.738113,117.204475 125.869362,116.605965 127.000610,116.007454 
	C127.021515,116.226433 127.042427,116.445412 127.053604,117.434631 
	C127.020988,119.530289 126.980087,120.855675 126.978027,122.181137 
	C126.956779,135.864227 128.514603,137.389481 141.998322,136.906387 
M71.693237,110.110878 
	C73.116661,110.525703 74.930534,111.701714 75.888977,111.210068 
	C78.571869,109.833855 80.901253,107.768509 83.440979,105.923630 
	C82.662514,104.569832 81.801971,103.073296 81.447350,102.456589 
	C78.054123,104.406425 74.939133,106.196381 71.069557,108.419945 
	C71.086639,108.037140 71.042862,109.018112 70.243309,110.009613 
	C69.604401,110.134216 68.764893,110.048561 68.368172,110.427032 
	C67.532066,111.224678 66.841896,112.222092 66.321907,113.253517 
	C66.244507,113.407028 67.661186,114.725143 67.965729,114.585632 
	C69.044136,114.091606 70.114647,113.334686 70.836967,112.404648 
	C71.245689,111.878395 70.968933,110.819763 71.693237,110.110878 
M42.869244,126.013062 
	C43.795460,126.383308 44.721676,126.753548 45.647888,127.123787 
	C43.147678,128.007004 40.626781,127.420906 38.597225,128.168564 
	C36.483852,128.947113 34.844696,131.012909 32.998188,132.515869 
	C34.609077,133.805679 36.097813,135.961578 37.855648,136.209518 
	C41.822842,136.769058 45.923080,136.385300 50.508148,136.385300 
	C48.768394,131.641068 52.962399,125.643494 46.935719,123.085114 
	C43.706959,121.714493 39.544010,122.433952 35.811710,122.537430 
	C35.453079,122.547363 35.158951,124.883949 34.868710,126.009277 
	C37.710640,126.009277 39.851295,126.009277 42.869244,126.013062 
M96.844254,136.881393 
	C97.814316,135.777481 98.784378,134.673553 100.083931,133.194702 
	C95.467804,132.884186 91.893097,132.643738 88.318398,132.403275 
	C91.192154,131.048828 94.090721,131.283188 96.702301,130.526749 
	C98.077812,130.128326 99.730782,128.044067 99.811279,126.638161 
	C99.878090,125.471306 98.044250,123.732346 96.658394,123.064728 
	C94.985809,122.258980 92.897255,122.050713 90.989105,122.052193 
	C86.179565,122.055923 84.116211,124.209740 83.992043,128.946213 
	C83.854286,134.201309 85.715492,136.558304 90.528404,136.967865 
	C92.343208,137.122284 94.186501,136.942062 96.844254,136.881393 
M71.185570,116.591064 
	C71.185570,123.182999 71.185570,129.774933 71.185570,136.632111 
	C72.953270,136.632111 74.313004,136.632111 76.033012,136.632111 
	C76.033012,131.146927 75.901131,125.866150 76.080368,120.595955 
	C76.195763,117.202972 74.695679,115.812584 71.185570,116.591064 
M62.831181,135.972946 
	C62.868965,130.825287 62.763500,125.671196 62.994869,120.532257 
	C63.149223,117.103821 61.528103,115.955490 58.163460,115.740997 
	C58.163460,121.835625 58.324398,127.639557 58.102837,133.428848 
	C57.970863,136.877197 59.506229,137.434647 62.831181,135.972946 
M108.931038,136.088150 
	C110.172501,136.371613 111.413963,136.655075 112.749321,136.959976 
	C113.434845,126.345963 113.434845,126.345963 119.980797,125.734261 
	C119.873352,124.529335 119.765869,123.323860 119.633698,121.841576 
	C115.842918,122.179382 112.411423,122.485176 108.769760,122.809700 
	C108.769760,126.920662 108.769760,131.044128 108.931038,136.088150 
z"/>
<path fill="#FCE9E5" opacity="1.000000" stroke="none" 
	d="
M17.000000,146.000000 
	C11.720284,146.000000 6.440568,146.000000 1.000000,146.000000 
	C1.000000,136.979599 1.000000,127.958458 1.403926,118.460556 
	C3.653293,117.703011 5.498734,117.422226 7.218880,117.565842 
	C7.093585,119.241188 7.093585,120.492119 7.093585,121.881485 
	C9.605066,122.011238 11.821557,122.125748 14.290743,122.253311 
	C14.290743,127.301559 14.290743,131.885223 14.290743,136.894348 
	C16.015301,136.894348 17.456417,136.894348 18.897535,136.894348 
	C18.897535,136.894348 18.974360,136.973434 19.037697,137.356750 
	C18.919596,138.816299 18.971506,140.709717 18.519606,140.838760 
	C15.067782,141.824417 16.826195,144.108582 17.000000,146.000000 
z"/>
<path fill="#F4E2DE" opacity="1.000000" stroke="none" 
	d="
M7.344174,117.141441 
	C5.498734,117.422226 3.653293,117.703011 1.403926,117.991898 
	C1.000000,116.933327 1.000000,115.866661 1.000000,114.399994 
	C5.657459,113.535057 8.687293,110.941940 10.756325,106.468590 
	C14.274533,107.341606 17.645754,107.139839 19.154198,102.708755 
	C19.280575,102.337524 20.498041,102.247635 21.222240,102.185112 
	C25.028139,101.856560 28.317974,100.715889 30.379623,96.447433 
	C30.767763,96.014824 31.233786,96.160797 31.191448,96.430397 
	C31.224392,96.809586 31.299671,96.919182 31.374950,97.028770 
	C31.452770,96.736069 31.530588,96.443375 31.955666,96.074631 
	C33.011566,95.955505 33.720207,95.912430 34.741917,95.940247 
	C35.704479,96.060326 36.353977,96.109497 37.003471,96.158676 
	C35.294621,99.615128 34.120018,103.363197 29.005953,103.465279 
	C26.889677,103.507523 24.790833,105.177811 22.711845,106.166130 
	C19.097452,107.884361 15.350260,109.399338 11.968781,111.498878 
	C10.311415,112.527916 9.349996,114.677834 7.886270,116.782639 
	C7.698937,117.244804 7.344174,117.141441 7.344174,117.141441 
z"/>
<path fill="#F4E2DE" opacity="1.000000" stroke="none" 
	d="
M1.000000,78.399994 
	C5.328879,77.032959 8.923091,75.109215 10.724929,70.300636 
	C12.036811,70.694115 13.766206,70.740875 14.644084,71.629166 
	C15.316222,72.309296 15.402630,74.906754 14.910569,75.189072 
	C10.632499,77.643517 6.164855,79.767548 1.376788,81.994904 
	C1.000000,80.933327 1.000000,79.866661 1.000000,78.399994 
z"/>
<path fill="#EBDAD6" opacity="1.000000" stroke="none" 
	d="
M17.375000,146.000000 
	C16.826195,144.108582 15.067782,141.824417 18.519606,140.838760 
	C18.971506,140.709717 18.919596,138.816299 19.076199,137.396210 
	C20.595539,137.178558 22.154659,137.212433 23.679346,137.459122 
	C24.987703,137.670807 26.256681,138.125854 27.543076,138.473267 
	C26.609182,139.309204 25.675287,140.145142 24.317715,140.847626 
	C23.805449,140.665283 23.716860,140.616348 23.628273,140.567429 
	C23.750782,140.712723 23.873293,140.858002 23.995804,141.003296 
	C22.686190,142.432846 21.376575,143.862381 20.033482,145.645966 
	C19.250000,146.000000 18.500000,146.000000 17.375000,146.000000 
z"/>
<path fill="#F4E2DE" opacity="1.000000" stroke="none" 
	d="
M70.998550,4.001892 
	C69.235786,5.311725 67.473030,6.621556 65.183167,7.741921 
	C64.105721,8.035423 63.555386,8.518391 63.005051,9.001357 
	C61.661800,8.178615 60.318550,7.355874 58.975300,6.533133 
	C59.509876,6.309708 60.044453,6.086282 60.579025,5.862857 
	C62.362190,4.476348 64.145355,3.089840 65.964264,1.351665 
	C69.030594,1.000000 72.061188,1.000000 75.545891,1.000000 
	C74.366653,1.782777 72.733299,2.565553 71.049973,3.674165 
	C71.000000,4.000000 70.998550,4.001892 70.998550,4.001892 
z"/>
<path fill="#FCE9E5" opacity="1.000000" stroke="none" 
	d="
M5.000155,7.999071 
	C3.910712,8.332745 2.821268,8.666418 1.365913,9.000046 
	C1.000000,6.439984 1.000000,3.879968 1.000000,1.000000 
	C2.326929,1.000000 3.663502,1.000000 5.497331,1.358573 
	C5.663109,3.811121 5.331632,5.905096 5.000155,7.999071 
z"/>
<path fill="#F4E2DE" opacity="1.000000" stroke="none" 
	d="
M77.399994,146.000000 
	C78.110886,143.243988 79.221771,140.487976 80.559387,137.169479 
	C81.809967,138.904236 82.798065,140.274902 83.467926,141.204102 
	C82.494591,142.826111 81.746185,144.073273 80.998886,145.660217 
	C79.933327,146.000000 78.866661,146.000000 77.399994,146.000000 
z"/>
<path fill="#F4E2DE" opacity="1.000000" stroke="none" 
	d="
M5.320203,7.858780 
	C5.331632,5.905096 5.663109,3.811121 5.997293,1.358573 
	C7.388889,1.000000 8.777778,1.000000 10.583334,1.000000 
	C11.670524,5.199681 8.199327,6.095259 5.320203,7.858780 
z"/>
<path fill="#FCE9E5" opacity="1.000000" stroke="none" 
	d="
M185.000000,115.625000 
	C183.412537,115.813080 181.825089,115.626160 180.237625,115.439232 
	C180.254684,114.778656 180.271729,114.118073 180.288773,113.457489 
	C181.598038,113.304939 182.907303,113.152382 184.608276,112.999916 
	C185.000000,113.750000 185.000000,114.500000 185.000000,115.625000 
z"/>
<path fill="#FCE9E5" opacity="1.000000" stroke="none" 
	d="
M185.000000,43.600006 
	C183.705078,43.383480 182.410141,42.766960 181.115219,42.150436 
	C182.145432,41.434818 183.175629,40.719200 184.602921,40.001793 
	C185.000000,41.066669 185.000000,42.133339 185.000000,43.600006 
z"/>
<path fill="#FCE9E5" opacity="1.000000" stroke="none" 
	d="
M185.000000,7.600004 
	C182.239807,7.159301 182.324066,5.810531 184.653717,4.061275 
	C185.000000,5.066669 185.000000,6.133338 185.000000,7.600004 
z"/>
<path fill="#FCE9E5" opacity="1.000000" stroke="none" 
	d="
M127.000725,2.002860 
	C127.000496,1.835717 127.000267,1.668574 127.000015,1.250715 
	C127.750000,1.000000 128.500000,1.000000 129.625000,1.000000 
	C130.000031,1.750304 130.000061,2.500608 129.687286,3.588716 
	C128.583237,3.285300 127.791985,2.644080 127.000725,2.002860 
z"/>
<path fill="#FCE9E5" opacity="1.000000" stroke="none" 
	d="
M185.000000,78.625000 
	C184.777481,78.033546 184.554962,77.067093 184.666229,76.050323 
	C185.000000,76.750000 185.000000,77.500000 185.000000,78.625000 
z"/>
<path fill="#FCE9E5" opacity="1.000000" stroke="none" 
	d="
M1.000000,41.333496 
	C1.443001,40.999989 1.886001,40.999977 2.907983,41.166641 
	C3.657412,41.889080 3.827858,42.444847 3.998305,43.000610 
	C3.998306,43.000610 3.500221,43.000057 2.917459,42.999275 
	C1.889798,42.998997 1.444899,42.999496 1.000000,43.000000 
	C1.000000,42.555664 1.000000,42.111328 1.000000,41.333496 
z"/>
<path fill="#FCE9E5" opacity="1.000000" stroke="none" 
	d="
M135.625000,0.999999 
	C135.033478,1.222533 134.066971,1.445068 133.050232,1.333801 
	C133.750000,1.000000 134.500000,1.000000 135.625000,0.999999 
z"/>
<path fill="#FCE9E5" opacity="1.000000" stroke="none" 
	d="
M14.625000,1.000000 
	C14.092161,1.187917 13.184323,1.375834 12.138243,1.281875 
	C12.750000,1.000000 13.500000,1.000000 14.625000,1.000000 
z"/>
<path fill="#F4E2DE" opacity="1.000000" stroke="none" 
	d="
M1.000000,43.333328 
	C1.444899,42.999496 1.889798,42.998997 2.668417,42.999020 
	C2.548740,43.638779 2.095344,44.278011 1.320974,44.958626 
	C1.000000,44.555553 1.000000,44.111111 1.000000,43.333328 
z"/>
<path fill="#070404" opacity="1.000000" stroke="none" 
	d="
M25.020832,62.004517 
	C27.905174,42.037457 38.302944,26.812111 55.039394,16.062304 
	C82.561195,-1.614929 116.294304,2.604959 139.826996,26.711912 
	C138.435883,28.445589 137.227432,29.727356 135.715714,30.865582 
	C120.136215,15.522504 101.938141,9.542427 80.558830,12.898615 
	C57.609650,16.501244 37.405029,35.207775 32.150993,58.280876 
	C32.076820,58.509953 32.093464,58.991528 31.961704,59.188614 
	C31.700418,59.691261 31.485325,59.914280 30.809341,60.044136 
	C28.629623,60.690514 26.825228,61.347515 25.020832,62.004517 
z"/>
<path fill="#0A0707" opacity="1.000000" stroke="none" 
	d="
M154.938995,95.572037 
	C152.881561,95.966652 150.885208,95.979279 148.524780,95.554657 
	C151.306091,87.028954 152.807236,78.691101 152.027222,69.568726 
	C151.778397,66.075111 151.473145,63.011459 151.464233,59.781696 
	C153.453735,59.075947 155.146896,58.536301 156.955750,58.303593 
	C157.408752,59.406818 157.746094,60.203110 158.083420,60.999397 
	C159.468842,72.613907 159.008911,84.061996 154.938995,95.572037 
z"/>
<path fill="#0E0D0D" opacity="1.000000" stroke="none" 
	d="
M142.206375,136.626465 
	C128.514603,137.389481 126.956779,135.864227 126.978027,122.181137 
	C126.980087,120.855675 127.020988,119.530289 127.093941,117.762115 
	C128.613754,117.319374 130.083481,117.319374 132.135025,117.319374 
	C132.135025,120.964958 132.227692,124.413269 132.108932,127.854286 
	C131.990250,131.292969 133.882370,132.643143 136.940521,132.799088 
	C140.188843,132.964706 142.487778,131.799255 142.530945,128.106628 
	C142.571396,124.645256 142.539597,121.183037 142.539597,117.562057 
	C144.437134,117.562057 145.832733,117.562057 147.834930,117.562057 
	C146.392487,124.221497 150.987366,131.997681 142.206375,136.626465 
z"/>
<path fill="#161414" opacity="1.000000" stroke="none" 
	d="
M161.995621,127.999992 
	C161.995621,126.181313 161.995621,124.362640 161.995621,122.242500 
	C159.945877,122.242500 157.827820,122.242500 155.291290,122.242500 
	C155.153152,120.599884 155.037033,119.219208 154.894379,117.523087 
	C161.468384,117.523087 167.735306,117.523087 174.507034,117.523087 
	C174.679916,118.694130 174.880951,120.055870 175.128891,121.735199 
	C172.399780,121.936523 169.967163,122.115982 167.301117,122.312653 
	C167.301117,127.100883 167.301117,131.734116 167.301117,136.573517 
	C164.688614,136.904984 161.917648,138.207642 162.199341,132.982559 
	C162.134033,130.790329 162.064835,129.395157 161.995621,127.999992 
z"/>
<path fill="#070404" opacity="1.000000" stroke="none" 
	d="
M34.428848,95.869347 
	C33.720207,95.912430 33.011566,95.955505 31.862509,96.090912 
	C31.422092,96.183250 31.233786,96.160797 31.233786,96.160797 
	C31.233786,96.160797 30.767763,96.014824 30.534513,96.087051 
	C29.161615,95.051384 27.237383,94.082260 27.012829,92.812538 
	C25.785067,85.870308 24.974813,78.854240 24.463932,71.413757 
	C26.567448,70.654930 28.228090,70.345901 29.992121,70.027473 
	C30.095509,70.018074 30.287373,69.938896 30.211868,70.389313 
	C31.414309,78.237518 32.692253,85.635315 33.980843,93.393204 
	C34.137276,94.458656 34.283062,95.164001 34.428848,95.869347 
z"/>
<path fill="#070303" opacity="1.000000" stroke="none" 
	d="
M156.840073,57.996658 
	C155.146896,58.536301 153.453735,59.075947 151.377243,59.801918 
	C150.993927,59.988247 150.829803,60.058640 150.841736,59.678749 
	C147.591980,52.189125 144.330307,45.079395 141.047668,37.726620 
	C141.026733,37.483574 141.006012,36.996117 141.320862,36.837349 
	C143.388351,36.130974 145.141006,35.583359 146.893661,35.035751 
	C150.195343,42.127361 153.497025,49.218971 156.890228,56.905045 
	C156.934540,57.665226 156.887299,57.830944 156.840073,57.996658 
z"/>
<path fill="#F4E2DE" opacity="1.000000" stroke="none" 
	d="
M127.356659,115.966118 
	C125.869362,116.605965 124.738113,117.204475 123.094559,118.074028 
	C122.063919,116.992561 120.909866,115.781593 118.583061,113.340034 
	C125.821472,114.327866 129.921280,112.251976 131.419601,106.197403 
	C136.257034,107.866577 139.050461,105.818878 140.868500,101.037003 
	C141.861847,102.405228 142.662430,103.507927 143.734009,104.805084 
	C143.204269,105.969185 142.582367,107.487259 141.572784,107.816452 
	C136.336380,109.523903 132.026459,112.704666 127.356659,115.966118 
z"/>
<path fill="#F4E2DE" opacity="1.000000" stroke="none" 
	d="
M23.628162,28.520399 
	C26.560606,26.854507 29.675457,25.914202 31.749386,23.901375 
	C34.558784,21.174742 35.480938,22.731583 36.640224,24.599960 
	C33.948467,31.169985 27.144182,30.377705 21.606665,34.309231 
	C22.422159,31.712440 22.884476,30.240284 23.628162,28.520399 
z"/>
<path fill="#0E0D0D" opacity="1.000000" stroke="none" 
	d="
M29.888733,70.036873 
	C28.228090,70.345901 26.567448,70.654930 24.540585,70.955025 
	C24.174364,70.946091 24.016243,71.045731 23.996601,70.738731 
	C23.925613,69.581215 23.874266,68.730698 23.822918,67.880180 
	C24.119579,66.122223 24.416241,64.364258 24.866867,62.305405 
	C26.825228,61.347515 28.629623,60.690514 30.779585,60.467079 
	C30.713013,63.946056 30.300873,66.991463 29.888733,70.036873 
z"/>
<path fill="#0F0F0F" opacity="1.000000" stroke="none" 
	d="
M146.844009,34.713627 
	C145.141006,35.583359 143.388351,36.130974 141.050171,36.665131 
	C139.056046,35.077156 137.647461,33.502632 136.178040,31.699762 
	C136.117218,31.471418 136.018982,31.009125 136.018982,31.009123 
	C137.227432,29.727356 138.435883,28.445589 139.957825,27.028841 
	C142.907990,28.990835 145.574905,31.061520 146.844009,34.713627 
z"/>
<path fill="#F4E2DE" opacity="1.000000" stroke="none" 
	d="
M4.390049,43.000771 
	C3.827858,42.444847 3.657412,41.889080 3.240475,41.166870 
	C3.463704,40.680904 3.933424,40.361389 4.790122,40.187347 
	C5.449646,40.221737 5.722191,40.110653 5.994737,39.999573 
	C7.561141,38.534336 9.127545,37.069096 10.846975,35.301926 
	C11.000000,35.000000 11.001601,34.997925 11.001601,34.997925 
	C12.613690,35.377827 15.591510,35.695827 15.612000,36.147873 
	C15.728376,38.715466 14.403234,39.789440 11.897752,38.090481 
	C11.848273,38.056927 11.345425,38.883831 10.946010,39.142212 
	C8.910861,40.458733 6.840094,41.720196 4.390049,43.000771 
z"/>
<path fill="#F4E2DE" opacity="1.000000" stroke="none" 
	d="
M145.348297,104.997086 
	C145.322220,103.383568 145.648361,101.765915 145.974503,100.148262 
	C148.328522,100.785805 150.002304,94.968193 152.882568,99.716827 
	C153.737961,103.816063 153.601364,103.718285 150.443695,103.260071 
	C148.977341,103.047272 147.288498,104.367622 145.348297,104.997086 
z"/>
<path fill="#F4E2DE" opacity="1.000000" stroke="none" 
	d="
M126.838150,2.314592 
	C127.791985,2.644080 128.583237,3.285300 129.686951,3.964172 
	C127.321640,9.005425 123.221169,9.866421 120.446106,6.008308 
	C122.522781,4.881295 124.599174,3.753810 126.838150,2.314592 
z"/>
<path fill="#F4E2DE" opacity="1.000000" stroke="none" 
	d="
M148.000610,136.998779 
	C149.224930,136.152863 150.449249,135.306931 151.673553,134.460999 
	C152.335602,136.045029 152.997650,137.629044 153.659714,139.213074 
	C152.608719,139.249603 151.557724,139.286133 150.133469,138.894775 
	C149.173676,137.977539 148.587143,137.488159 148.000610,136.998779 
z"/>
<path fill="#FCE9E5" opacity="1.000000" stroke="none" 
	d="
M23.455658,67.816360 
	C23.874266,68.730698 23.925613,69.581215 23.903358,70.744873 
	C22.189877,70.985138 20.549999,70.912254 18.386280,70.816093 
	C18.725727,68.908676 19.020664,67.251381 19.447716,64.851700 
	C20.966337,66.061714 22.027369,66.907127 23.455658,67.816360 
z"/>
<path fill="#F4E2DE" opacity="1.000000" stroke="none" 
	d="
M149.000610,28.999924 
	C149.735718,27.743904 150.470810,26.487883 151.205902,25.231859 
	C152.106705,26.616386 153.007492,28.000916 153.908295,29.385445 
	C152.775955,29.699348 151.643631,30.013252 150.147430,29.944477 
	C149.583862,29.289135 149.322876,29.101843 149.000610,28.999924 
z"/>
<path fill="#FCE9E5" opacity="1.000000" stroke="none" 
	d="
M156.955750,58.303593 
	C156.887299,57.830944 156.934540,57.665226 157.047607,57.249569 
	C158.643723,57.214127 160.173981,57.428627 161.704254,57.643120 
	C160.743546,58.757793 159.782837,59.872463 158.452774,60.993263 
	C157.746094,60.203110 157.408752,59.406818 156.955750,58.303593 
z"/>
<path fill="#FCE9E5" opacity="1.000000" stroke="none" 
	d="
M38.206398,19.969320 
	C39.401356,19.573961 40.294193,19.352533 41.796646,18.979919 
	C41.312412,20.873331 40.971012,22.208241 40.629616,23.543150 
	C40.194298,23.685656 39.758980,23.828159 39.323662,23.970663 
	C38.850533,22.694859 38.377403,21.419056 38.206398,19.969320 
z"/>
<path fill="#FCE9E5" opacity="1.000000" stroke="none" 
	d="
M161.645081,128.035370 
	C162.064835,129.395157 162.134033,130.790329 162.096909,132.592743 
	C160.793274,132.204987 159.595963,131.409958 158.398666,130.614914 
	C159.363953,129.766861 160.329254,128.918793 161.645081,128.035370 
z"/>
<path fill="#FCE9E5" opacity="1.000000" stroke="none" 
	d="
M162.330597,21.150476 
	C161.437805,22.207424 160.619583,22.952774 159.801361,23.698124 
	C159.344040,22.709738 158.886719,21.721350 158.429382,20.732964 
	C159.754639,20.768270 161.079880,20.803576 162.330597,21.150476 
z"/>
<path fill="#FCE9E5" opacity="1.000000" stroke="none" 
	d="
M158.990509,95.302147 
	C159.538696,94.210587 160.159973,93.428192 160.781250,92.645798 
	C161.118683,93.487511 161.456100,94.329231 161.793518,95.170952 
	C160.883560,95.317734 159.973587,95.464523 158.990509,95.302147 
z"/>
<path fill="#FCE9E5" opacity="1.000000" stroke="none" 
	d="
M147.886292,137.276581 
	C148.587143,137.488159 149.173676,137.977539 149.880829,138.732864 
	C149.149719,139.102524 148.297974,139.206223 147.446243,139.309921 
	C147.554810,138.724747 147.663391,138.139572 147.886292,137.276581 
z"/>
<path fill="#FCE9E5" opacity="1.000000" stroke="none" 
	d="
M148.712799,29.035332 
	C149.322876,29.101843 149.583862,29.289135 149.892609,29.780323 
	C149.174255,30.100954 148.346863,30.203058 147.519470,30.305159 
	C147.821304,29.893684 148.123138,29.482212 148.712799,29.035332 
z"/>
<path fill="#F4E2DE" opacity="1.000000" stroke="none" 
	d="
M20.390869,29.465778 
	C19.942255,29.349934 19.667063,29.067076 19.413197,28.766224 
	C19.406624,28.758434 19.633308,28.553812 19.751211,28.440983 
	C20.023176,28.726118 20.295141,29.011253 20.390869,29.465778 
z"/>
<path fill="#FCE9E5" opacity="1.000000" stroke="none" 
	d="
M63.300781,8.980179 
	C63.555386,8.518391 64.105721,8.035423 64.825882,7.782113 
	C64.529305,8.327513 64.062904,8.643256 63.300781,8.980179 
z"/>
<path fill="#F4E2DE" opacity="1.000000" stroke="none" 
	d="
M71.000916,3.999272 
	C71.122063,4.140755 71.242302,4.282966 71.362534,4.425178 
	C71.276917,4.376135 71.191292,4.327093 71.052109,4.139971 
	C70.998550,4.001892 71.000000,4.000000 71.000916,3.999272 
z"/>
<path fill="#F4E2DE" opacity="1.000000" stroke="none" 
	d="
M10.998983,35.000793 
	C10.877760,34.859280 10.757554,34.716976 10.637348,34.574673 
	C10.723015,34.623703 10.808681,34.672733 10.947975,34.859844 
	C11.001601,34.997925 11.000000,35.000000 10.998983,35.000793 
z"/>
<path fill="#FCE9E5" opacity="1.000000" stroke="none" 
	d="
M5.745905,39.999767 
	C5.722191,40.110653 5.449646,40.221737 5.088257,40.166561 
	C4.999413,40.000305 5.497075,39.999962 5.745905,39.999767 
z"/>
<path fill="#FEFDFD" opacity="1.000000" stroke="none" 
	d="
M92.016060,96.048584 
	C75.680939,96.025055 59.345814,96.001534 42.610771,95.649368 
	C41.557938,93.852654 40.905022,92.384590 40.211685,90.512466 
	C39.404377,81.729630 38.637489,73.350845 37.962227,64.656029 
	C38.042583,63.903698 38.031315,63.467411 38.255615,62.744392 
	C39.061096,59.998898 39.631012,57.540131 40.460381,54.846992 
	C49.570354,31.831905 69.872314,18.161049 94.038078,19.127241 
	C106.902687,19.641592 117.994614,24.968576 127.989990,33.395912 
	C130.723022,36.573864 133.304718,39.424030 135.951920,42.611382 
	C138.775543,49.630508 141.533676,56.312454 144.271423,63.405685 
	C144.272156,65.414276 144.293274,67.011581 143.984253,68.599243 
	C142.821701,67.508125 141.989273,66.426651 141.119431,65.296585 
	C139.606995,67.396706 138.306061,69.203133 136.598419,71.007370 
	C134.059906,70.974762 131.710159,70.639076 131.657257,74.002136 
	C129.250687,74.324837 127.185661,74.644188 125.028320,74.909637 
	C124.936012,74.855728 124.732353,74.790634 124.668747,74.430695 
	C123.074280,73.047127 121.543434,72.023499 120.126236,70.670288 
	C120.148575,69.893700 120.057259,69.446693 120.029236,68.623413 
	C119.231682,63.792061 115.747276,63.150059 112.114853,62.367962 
	C110.795197,61.477863 109.459190,60.966743 107.663857,60.265156 
	C106.544876,60.108574 105.885216,60.142460 104.942390,60.065903 
	C95.099236,57.956711 86.137634,59.303818 77.590454,64.838501 
	C76.140442,65.942230 75.007278,66.947327 73.516113,67.979370 
	C71.770821,68.355011 70.383522,68.703705 68.599319,68.979118 
	C65.806267,69.617912 63.410122,70.329979 60.665623,71.082657 
	C59.540722,72.347679 58.651188,73.515755 58.007568,74.806465 
	C55.482224,79.870758 60.365131,80.573875 62.803925,83.067322 
	C66.691696,87.850990 70.462120,87.557465 73.012054,82.662483 
	C73.491585,81.741951 74.295372,80.990334 75.169861,80.538101 
	C86.259178,80.915764 97.128166,80.916092 108.176331,81.083633 
	C108.355507,81.250832 108.833138,81.360870 108.848511,81.691391 
	C109.563286,83.045532 110.262688,84.069145 111.083923,85.381546 
	C111.812935,85.749832 112.420105,85.829315 113.242386,86.146156 
	C115.334526,85.267387 117.211563,84.151253 119.352112,82.892120 
	C119.765961,82.174026 119.916290,81.598938 120.439224,81.014381 
	C122.201683,80.669640 123.591537,80.334366 125.375473,79.999504 
	C129.513458,79.731995 132.290802,78.459908 132.275452,74.194633 
	C135.085785,77.259956 136.287872,75.898758 137.404907,72.985840 
	C139.992126,71.543098 142.175247,70.099724 144.634094,68.986023 
	C145.011932,69.878868 145.114029,70.442032 145.139175,71.453468 
	C143.434097,79.915215 141.805969,87.928696 140.177826,95.942169 
	C126.094383,95.964752 112.010941,95.987335 97.044037,96.005325 
	C94.779076,96.016685 93.397568,96.032639 92.016060,96.048584 
M76.441849,35.601414 
	C74.645668,35.216022 72.343948,33.935966 71.147545,34.612007 
	C67.472366,36.688721 64.220573,39.514694 60.417744,42.336143 
	C61.983551,45.247654 64.925415,44.696453 67.612427,42.712620 
	C69.995987,40.952820 71.544868,37.995110 75.282867,38.631142 
	C75.693642,38.701035 76.419212,36.920876 77.742004,35.997658 
	C79.793983,35.021103 81.845963,34.044548 84.108047,32.968002 
	C82.756340,31.196926 81.756905,29.887417 81.013786,28.913748 
	C80.141518,30.132025 79.352959,31.043671 78.784210,32.076378 
	C78.093063,33.331337 77.587227,34.688354 76.441849,35.601414 
M89.803665,25.187826 
	C86.859924,27.181810 88.567566,28.853371 90.391830,30.065922 
	C92.528458,31.486095 93.740303,30.670063 93.728348,28.025316 
	C93.726624,27.643042 94.717705,27.338585 94.931793,26.856960 
	C95.483238,25.616335 95.856583,24.296541 96.301086,23.008381 
	C95.076500,23.286884 93.828102,23.490711 92.635971,23.870966 
	C91.880753,24.111860 91.209373,24.615591 89.803665,25.187826 
M127.928581,38.975761 
	C125.410461,39.862682 122.892342,40.749603 120.325409,41.653721 
	C122.931564,45.631420 122.886269,45.545071 127.787384,42.974327 
	C129.831787,41.901989 130.394028,41.000172 127.928581,38.975761 
z"/>
<path fill="#060606" opacity="1.000000" stroke="none" 
	d="
M42.430595,126.011169 
	C39.851295,126.009277 37.710640,126.009277 34.868710,126.009277 
	C35.158951,124.883949 35.453079,122.547363 35.811710,122.537430 
	C39.544010,122.433952 43.706959,121.714493 46.935719,123.085114 
	C52.962399,125.643494 48.768394,131.641068 50.508148,136.385300 
	C45.923080,136.385300 41.822842,136.769058 37.855648,136.209518 
	C36.097813,135.961578 34.609077,133.805679 32.998192,132.515869 
	C34.844696,131.012909 36.483852,128.947113 38.597225,128.168564 
	C40.626781,127.420906 43.147678,128.007004 45.647888,127.123787 
	C44.721676,126.753548 43.795460,126.383308 42.430595,126.011169 
z"/>
<path fill="#050505" opacity="1.000000" stroke="none" 
	d="
M96.430527,136.897888 
	C94.186501,136.942062 92.343208,137.122284 90.528404,136.967865 
	C85.715492,136.558304 83.854286,134.201309 83.992043,128.946213 
	C84.116211,124.209740 86.179565,122.055923 90.989105,122.052193 
	C92.897255,122.050713 94.985809,122.258980 96.658394,123.064728 
	C98.044250,123.732346 99.878090,125.471306 99.811279,126.638161 
	C99.730782,128.044067 98.077812,130.128326 96.702301,130.526749 
	C94.090721,131.283188 91.192154,131.048828 88.318398,132.403275 
	C91.893097,132.643738 95.467804,132.884186 100.083931,133.194702 
	C98.784378,134.673553 97.814316,135.777481 96.430527,136.897888 
z"/>
<path fill="#D80202" opacity="1.000000" stroke="none" 
	d="
M140.612793,95.954102 
	C141.805969,87.928696 143.434097,79.915215 145.518982,71.443993 
	C147.974075,70.657051 149.972443,70.327866 151.970795,69.998672 
	C152.807236,78.691101 151.306091,87.028954 148.102692,95.481033 
	C145.712372,95.885124 143.380051,95.925575 140.612793,95.954102 
z"/>
<path fill="#131212" opacity="1.000000" stroke="none" 
	d="
M7.218880,117.565842 
	C7.344174,117.141441 7.698937,117.244804 7.848833,117.136795 
	C12.981368,117.100349 17.969780,117.346535 22.944614,117.182045 
	C26.257610,117.072510 27.652441,118.064957 26.483147,122.053162 
	C24.744009,122.053162 22.805660,122.053162 20.192070,122.112648 
	C19.134855,122.369537 19.068516,122.643410 19.317808,122.993752 
	C19.233133,127.326149 19.148457,131.658539 18.980659,136.442642 
	C17.456417,136.894348 16.015301,136.894348 14.290743,136.894348 
	C14.290743,131.885223 14.290743,127.301559 14.290743,122.253311 
	C11.821557,122.125748 9.605066,122.011238 7.093585,121.881485 
	C7.093585,120.492119 7.093585,119.241188 7.218880,117.565842 
z"/>
<path fill="#121110" opacity="1.000000" stroke="none" 
	d="
M71.337326,116.223007 
	C74.695679,115.812584 76.195763,117.202972 76.080368,120.595955 
	C75.901131,125.866150 76.033012,131.146927 76.033012,136.632111 
	C74.313004,136.632111 72.953270,136.632111 71.185570,136.632111 
	C71.185570,129.774933 71.185570,123.182999 71.337326,116.223007 
z"/>
<path fill="#1F1D1C" opacity="1.000000" stroke="none" 
	d="
M62.577774,136.347595 
	C59.506229,137.434647 57.970863,136.877197 58.102837,133.428848 
	C58.324398,127.639557 58.163460,121.835625 58.163460,115.740997 
	C61.528103,115.955490 63.149223,117.103821 62.994869,120.532257 
	C62.763500,125.671196 62.868965,130.825287 62.577774,136.347595 
z"/>
<path fill="#050505" opacity="1.000000" stroke="none" 
	d="
M108.850403,135.627869 
	C108.769760,131.044128 108.769760,126.920662 108.769760,122.809700 
	C112.411423,122.485176 115.842918,122.179382 119.633698,121.841576 
	C119.765869,123.323860 119.873352,124.529335 119.980797,125.734261 
	C113.434845,126.345963 113.434845,126.345963 112.749321,136.959976 
	C111.413963,136.655075 110.172501,136.371613 108.850403,135.627869 
z"/>
<path fill="#F4E2DE" opacity="1.000000" stroke="none" 
	d="
M70.999084,109.999084 
	C71.042862,109.018112 71.086639,108.037140 71.069557,108.419945 
	C74.939133,106.196381 78.054123,104.406425 81.447350,102.456589 
	C81.801971,103.073296 82.662514,104.569832 83.440979,105.923630 
	C80.901253,107.768509 78.571869,109.833855 75.888977,111.210068 
	C74.930534,111.701714 73.116661,110.525703 71.346619,110.055435 
	C71.000000,110.000000 70.999084,109.999084 70.999084,109.999084 
z"/>
<path fill="#F4E2DE" opacity="1.000000" stroke="none" 
	d="
M91.953796,96.386070 
	C93.397568,96.032639 94.779076,96.016685 96.574768,96.014526 
	C96.273209,97.324432 95.573921,98.630005 94.837021,99.913994 
	C94.120987,101.161636 93.366402,102.387154 91.791710,105.024048 
	C90.549194,102.883011 89.562248,101.182365 88.472481,99.304543 
	C89.432266,98.580017 90.661903,97.651787 91.953796,96.386070 
z"/>
<path fill="#DA1010" opacity="1.000000" stroke="none" 
	d="
M40.252106,90.916527 
	C40.905022,92.384590 41.557938,93.852654 42.147846,95.670876 
	C40.670826,96.025742 39.256817,96.030441 37.423138,96.096909 
	C36.353977,96.109497 35.704479,96.060326 34.741917,95.940247 
	C34.283062,95.164001 34.137276,94.458656 34.346855,93.348099 
	C36.552185,92.267441 38.402145,91.591988 40.252106,90.916527 
z"/>
<path fill="#F4E2DE" opacity="1.000000" stroke="none" 
	d="
M71.000458,110.000458 
	C70.968933,110.819763 71.245689,111.878395 70.836967,112.404648 
	C70.114647,113.334686 69.044136,114.091606 67.965729,114.585632 
	C67.661186,114.725143 66.244507,113.407028 66.321907,113.253517 
	C66.841896,112.222092 67.532066,111.224678 68.368172,110.427032 
	C68.764893,110.048561 69.604401,110.134216 70.621201,110.004349 
	C70.999084,109.999084 71.000000,110.000000 71.000458,110.000458 
z"/>
<path fill="#EBDAD6" opacity="1.000000" stroke="none" 
	d="
M19.482796,122.921173 
	C19.068516,122.643410 19.134855,122.369537 19.758829,122.203438 
	C19.960968,122.484123 19.843285,122.688744 19.482796,122.921173 
z"/>
<path fill="#FCE9E5" opacity="1.000000" stroke="none" 
	d="
M31.191448,96.430397 
	C31.233786,96.160797 31.422092,96.183250 31.515249,96.166962 
	C31.530588,96.443375 31.452770,96.736069 31.374950,97.028770 
	C31.299671,96.919182 31.224392,96.809586 31.191448,96.430397 
z"/>
<path fill="#FCE9E5" opacity="1.000000" stroke="none" 
	d="
M23.997902,141.001648 
	C23.873293,140.858002 23.750782,140.712723 23.628273,140.567429 
	C23.716860,140.616348 23.805449,140.665283 23.948641,140.854965 
	C24.003246,140.995728 24.000000,141.000000 23.997902,141.001648 
z"/>
<path fill="#D70303" opacity="1.000000" stroke="none" 
	d="
M127.838669,33.068130 
	C117.994614,24.968576 106.902687,19.641592 94.038078,19.127241 
	C69.872314,18.161049 49.570354,31.831905 40.082588,54.828697 
	C37.958618,56.369640 36.471893,57.694504 34.656258,59.017403 
	C33.888802,59.013943 33.450249,59.012440 32.930984,58.813236 
	C32.702641,58.360268 32.494270,58.172356 32.225163,58.051800 
	C37.405029,35.207775 57.609650,16.501244 80.558830,12.898615 
	C101.938141,9.542427 120.136215,15.522504 135.715714,30.865583 
	C136.018982,31.009125 136.117218,31.471418 135.737885,31.721321 
	C132.851929,32.336861 130.345291,32.702492 127.838669,33.068130 
z"/>
<path fill="#C30303" opacity="1.000000" stroke="none" 
	d="
M33.011700,59.010941 
	C33.450249,59.012440 33.888802,59.013943 34.798969,59.302887 
	C36.187073,60.737259 37.103558,61.884190 38.020046,63.031120 
	C38.031315,63.467411 38.042583,63.903698 37.605232,64.661118 
	C36.442596,64.979416 35.728588,64.976585 34.812424,64.743057 
	C33.423889,66.339989 32.237507,68.167625 30.859402,69.991783 
	C30.667681,69.988304 30.287373,69.938896 30.287373,69.938896 
	C30.287373,69.938896 30.095509,70.018074 29.992121,70.027473 
	C30.300873,66.991463 30.713013,63.946056 31.154907,60.477703 
	C31.485325,59.914280 31.700418,59.691261 32.191185,59.195808 
	C32.552429,59.005917 33.011700,59.010941 33.011700,59.010941 
z"/>
<path fill="#DA1010" opacity="1.000000" stroke="none" 
	d="
M32.930984,58.813236 
	C33.011700,59.010941 32.552429,59.005917 32.322945,58.998722 
	C32.093464,58.991528 32.076820,58.509953 32.150993,58.280876 
	C32.494270,58.172356 32.702641,58.360268 32.930984,58.813236 
z"/>
<path fill="#D50A0A" opacity="1.000000" stroke="none" 
	d="
M152.027222,69.568726 
	C149.972443,70.327866 147.974075,70.657051 145.595917,70.995720 
	C145.114029,70.442032 145.011932,69.878868 144.599426,68.992416 
	C144.289017,68.669136 144.314377,68.608887 144.314392,68.608887 
	C144.293274,67.011581 144.272156,65.414276 144.613495,63.397163 
	C146.927231,62.004452 148.878510,61.031544 150.829803,60.058640 
	C150.829803,60.058640 150.993927,59.988247 151.080902,59.968025 
	C151.473145,63.011459 151.778397,66.075111 152.027222,69.568726 
z"/>
<path fill="#D70404" opacity="1.000000" stroke="none" 
	d="
M30.211868,70.389313 
	C30.287373,69.938896 30.667681,69.988304 31.207676,69.951355 
	C32.836639,68.267517 33.925606,66.620636 35.014572,64.973755 
	C35.728588,64.976585 36.442596,64.979416 37.513603,64.977158 
	C38.637489,73.350845 39.404377,81.729630 40.211685,90.512466 
	C38.402145,91.591988 36.552185,92.267441 34.336208,92.987999 
	C32.692253,85.635315 31.414309,78.237518 30.211868,70.389313 
z"/>
<path fill="#D70303" opacity="1.000000" stroke="none" 
	d="
M150.841736,59.678745 
	C148.878510,61.031544 146.927231,62.004452 144.633881,62.985882 
	C141.533676,56.312454 138.775543,49.630508 136.009460,42.237911 
	C137.690552,40.341393 139.379593,39.155533 141.068619,37.969666 
	C144.330307,45.079395 147.591980,52.189125 150.841736,59.678745 
z"/>
<path fill="#D50A0A" opacity="1.000000" stroke="none" 
	d="
M141.047668,37.726624 
	C139.379593,39.155533 137.690552,40.341393 135.943970,41.900726 
	C133.304718,39.424030 130.723022,36.573864 127.989990,33.395912 
	C130.345291,32.702492 132.851929,32.336861 135.798706,31.949665 
	C137.647461,33.502632 139.056046,35.077156 140.735321,36.823898 
	C141.006012,36.996117 141.026733,37.483574 141.047668,37.726624 
z"/>
<path fill="#000000" opacity="1.000000" stroke="none" 
	d="
M120.012589,70.999870 
	C121.543434,72.023499 123.074280,73.047127 124.229019,74.477066 
	C121.695114,75.338577 119.537315,75.793777 116.381721,76.459473 
	C117.982803,78.442680 119.024712,79.733261 120.066620,81.023849 
	C119.916290,81.598938 119.765961,82.174026 119.005905,82.851746 
	C114.914848,80.864967 114.852310,84.988327 113.027283,85.908798 
	C112.420105,85.829315 111.812935,85.749832 111.147293,85.030296 
	C111.757637,82.664070 115.369545,80.189880 110.015266,79.660629 
	C110.377609,78.217415 110.698944,77.118507 111.390915,76.013596 
	C112.788490,75.915039 113.815445,75.822479 114.842392,75.729927 
	C114.820854,75.490974 114.799316,75.252029 114.777779,75.013084 
	C113.515083,75.013084 112.252388,75.013084 110.650436,75.038307 
	C109.526054,76.026924 108.740936,76.990311 107.491226,77.965393 
	C102.131226,77.977081 97.235809,77.977081 92.007782,77.977081 
	C92.007782,74.480766 92.007782,71.843391 92.470711,69.148376 
	C97.623917,69.062965 102.314201,69.035202 107.199997,69.256058 
	C108.250587,69.598221 109.105675,69.691742 109.960754,69.785263 
	C110.005966,69.520096 110.051186,69.254921 110.096397,68.989746 
	C109.049217,68.665627 108.002037,68.341507 106.497185,68.014252 
	C102.366737,68.000145 98.693954,67.989166 95.149979,67.661995 
	C97.317589,64.189575 99.541359,61.431770 104.002838,62.696648 
	C104.159637,62.741100 104.806892,61.055569 105.225563,60.176346 
	C105.885216,60.142460 106.544876,60.108574 107.700226,60.640160 
	C109.046448,62.859669 109.556694,65.375252 112.098511,62.746941 
	C115.747276,63.150059 119.231682,63.792061 119.682404,68.619873 
	C118.241058,68.992592 117.209839,68.992592 116.178612,68.992592 
	C116.102097,69.363365 116.025581,69.734131 115.949059,70.104904 
	C117.303566,70.403229 118.658081,70.701553 120.012589,70.999870 
z"/>
<path fill="#0E0D0D" opacity="1.000000" stroke="none" 
	d="
M68.996223,69.052383 
	C70.383522,68.703705 71.770821,68.355011 73.928268,67.993362 
	C75.797882,67.987320 76.897346,67.994240 78.148041,68.161743 
	C79.547859,68.541008 80.796440,68.759674 82.443558,68.984344 
	C83.910431,69.034012 84.978783,69.077667 86.029945,69.481438 
	C84.968315,70.916451 84.025581,72.120819 82.857559,73.038429 
	C80.644127,74.777344 78.301491,76.351807 75.756020,78.182083 
	C75.316185,78.966652 75.132858,79.563705 74.949532,80.160767 
	C74.295372,80.990334 73.491585,81.741951 73.012054,82.662483 
	C70.462120,87.557465 66.691696,87.850990 62.871258,82.643799 
	C63.593864,79.597527 64.297165,77.300972 65.155113,74.698318 
	C66.538582,72.612274 67.767403,70.832329 68.996223,69.052383 
M68.967461,75.179832 
	C68.564430,75.274345 68.161407,75.368858 67.758377,75.463379 
	C67.846519,75.583412 67.950012,75.814812 68.020256,75.805130 
	C68.429352,75.748718 68.830627,75.635704 68.967461,75.179832 
z"/>
<path fill="#161616" opacity="1.000000" stroke="none" 
	d="
M82.045021,68.978348 
	C80.796440,68.759674 79.547859,68.541008 78.147209,67.753784 
	C77.965866,66.370102 77.936592,65.554985 77.907318,64.739861 
	C86.137634,59.303818 95.099236,57.956711 104.942390,60.065903 
	C104.806892,61.055569 104.159637,62.741100 104.002838,62.696648 
	C99.541359,61.431770 97.317589,64.189575 94.773567,67.673508 
	C93.516632,68.001625 92.764915,68.002037 91.682846,68.004166 
	C90.912033,68.002693 90.471573,67.999504 89.598831,68.000305 
	C86.792702,68.328979 84.418861,68.653664 82.045021,68.978348 
z"/>
<path fill="#0F0F0F" opacity="1.000000" stroke="none" 
	d="
M90.031113,67.996315 
	C90.471573,67.999504 90.912033,68.002693 91.665733,68.304977 
	C91.988579,68.804718 91.998177,69.005371 92.007782,69.206017 
	C92.007782,71.843391 92.007782,74.480766 92.007782,77.977081 
	C97.235809,77.977081 102.131226,77.977081 107.504539,78.336479 
	C107.987343,79.436058 107.992241,80.176247 107.997147,80.916428 
	C97.128166,80.916092 86.259178,80.915764 75.169861,80.538101 
	C75.132858,79.563705 75.316185,78.966652 76.220528,78.181976 
	C81.179283,77.994370 85.417023,77.994370 89.992134,77.994370 
	C89.992134,74.480476 89.992134,71.842300 90.011795,68.902496 
	C90.031349,68.399353 90.031227,68.197838 90.031113,67.996315 
z"/>
<path fill="#F6F6F6" opacity="1.000000" stroke="none" 
	d="
M76.998779,35.998779 
	C76.419212,36.920876 75.693642,38.701035 75.282867,38.631142 
	C71.544868,37.995110 69.995987,40.952820 67.612427,42.712620 
	C64.925415,44.696453 61.983551,45.247654 60.417744,42.336143 
	C64.220573,39.514694 67.472366,36.688721 71.147545,34.612007 
	C72.343948,33.935966 74.645668,35.216022 76.720924,35.800705 
	C77.000000,36.000000 76.998779,35.998779 76.998779,35.998779 
z"/>
<path fill="#0F0F0F" opacity="1.000000" stroke="none" 
	d="
M65.000465,75.004425 
	C64.297165,77.300972 63.593864,79.597527 62.823235,82.317589 
	C60.365131,80.573875 55.482224,79.870758 58.007568,74.806465 
	C58.651188,73.515755 59.540722,72.347679 60.667839,71.477997 
	C60.649849,75.019180 62.718098,75.146210 65.000465,75.004425 
z"/>
<path fill="#F6F6F6" opacity="1.000000" stroke="none" 
	d="
M90.152031,25.094635 
	C91.209373,24.615591 91.880753,24.111860 92.635971,23.870966 
	C93.828102,23.490711 95.076500,23.286884 96.301086,23.008381 
	C95.856583,24.296541 95.483238,25.616335 94.931793,26.856960 
	C94.717705,27.338585 93.726624,27.643042 93.728348,28.025316 
	C93.740303,30.670063 92.528458,31.486095 90.391830,30.065922 
	C88.567566,28.853371 86.859924,27.181810 90.152031,25.094635 
z"/>
<path fill="#0E0D0D" opacity="1.000000" stroke="none" 
	d="
M120.439224,81.014381 
	C119.024712,79.733261 117.982803,78.442680 116.381721,76.459473 
	C119.537315,75.793777 121.695114,75.338577 124.292633,74.837006 
	C124.732353,74.790634 124.936012,74.855728 124.945465,75.322571 
	C124.963753,77.192642 124.972580,78.595863 124.981400,79.999092 
	C123.591537,80.334366 122.201683,80.669640 120.439224,81.014381 
z"/>
<path fill="#000000" opacity="1.000000" stroke="none" 
	d="
M65.155113,74.698318 
	C62.718098,75.146210 60.649849,75.019180 61.016197,71.437393 
	C63.410122,70.329979 65.806267,69.617912 68.599319,68.979111 
	C67.767403,70.832329 66.538582,72.612274 65.155113,74.698318 
z"/>
<path fill="#F6F6F6" opacity="1.000000" stroke="none" 
	d="
M128.133133,39.225929 
	C130.394028,41.000172 129.831787,41.901989 127.787384,42.974327 
	C122.886269,45.545071 122.931564,45.631420 120.325409,41.653721 
	C122.892342,40.749603 125.410461,39.862682 128.133133,39.225929 
z"/>
<path fill="#F5F0F0" opacity="1.000000" stroke="none" 
	d="
M143.984253,68.599243 
	C144.314377,68.608887 144.289017,68.669136 144.323700,68.662743 
	C142.175247,70.099724 139.992126,71.543098 137.406113,72.656708 
	C137.003845,71.887810 137.004486,71.448692 137.005127,71.009567 
	C138.306061,69.203133 139.606995,67.396706 141.119431,65.296585 
	C141.989273,66.426651 142.821701,67.508125 143.984253,68.599243 
z"/>
<path fill="#F6F6F6" opacity="1.000000" stroke="none" 
	d="
M125.375473,79.999504 
	C124.972580,78.595863 124.963753,77.192642 125.037781,75.376480 
	C127.185661,74.644188 129.250687,74.324837 131.657867,74.002747 
	C132.000000,74.000000 132.001144,74.001556 132.001144,74.001556 
	C132.290802,78.459908 129.513458,79.731995 125.375473,79.999504 
z"/>
<path fill="#F6F6F6" opacity="1.000000" stroke="none" 
	d="
M77.000610,36.000610 
	C77.587227,34.688354 78.093063,33.331337 78.784210,32.076378 
	C79.352959,31.043671 80.141518,30.132025 81.013786,28.913748 
	C81.756905,29.887417 82.756340,31.196926 84.108047,32.968002 
	C81.845963,34.044548 79.793983,35.021103 77.370392,35.998219 
	C76.998779,35.998779 77.000000,36.000000 77.000610,36.000610 
z"/>
<path fill="#DA1010" opacity="1.000000" stroke="none" 
	d="
M38.255615,62.744392 
	C37.103558,61.884190 36.187073,60.737259 35.127876,59.304848 
	C36.471893,57.694504 37.958618,56.369640 39.823135,55.063072 
	C39.631012,57.540131 39.061096,59.998898 38.255615,62.744392 
z"/>
<path fill="#F6F6F6" opacity="1.000000" stroke="none" 
	d="
M136.598419,71.007370 
	C137.004486,71.448692 137.003845,71.887810 137.002014,72.656067 
	C136.287872,75.898758 135.085785,77.259956 132.275452,74.194633 
	C132.001144,74.001556 132.000000,74.000000 131.999390,73.999390 
	C131.710159,70.639076 134.059906,70.974762 136.598419,71.007370 
z"/>
<path fill="#0E0D0D" opacity="1.000000" stroke="none" 
	d="
M113.242386,86.146156 
	C114.852310,84.988327 114.914848,80.864967 118.742386,82.994751 
	C117.211563,84.151253 115.334526,85.267387 113.242386,86.146156 
z"/>
<path fill="#0E0D0D" opacity="1.000000" stroke="none" 
	d="
M109.974266,80.004936 
	C115.369545,80.189880 111.757637,82.664070 111.025467,84.741501 
	C110.262688,84.069145 109.563286,83.045532 108.979111,81.417725 
	C109.387650,80.543999 109.680962,80.274467 109.974266,80.004936 
z"/>
<path fill="#181818" opacity="1.000000" stroke="none" 
	d="
M110.015266,79.660629 
	C109.680962,80.274467 109.387650,80.543999 108.963745,81.087204 
	C108.833138,81.360870 108.355507,81.250832 108.176331,81.083633 
	C107.992241,80.176247 107.987343,79.436058 107.969131,78.324791 
	C108.740936,76.990311 109.526054,76.026924 110.657013,75.289894 
	C111.008659,75.684036 111.014473,75.851822 111.020287,76.019600 
	C110.698944,77.118507 110.377609,78.217415 110.015266,79.660629 
z"/>
<path fill="#161616" opacity="1.000000" stroke="none" 
	d="
M112.114853,62.367962 
	C109.556694,65.375252 109.046448,62.859669 108.159561,60.830627 
	C109.459190,60.966743 110.795197,61.477863 112.114853,62.367962 
z"/>
<path fill="#0F0F0F" opacity="1.000000" stroke="none" 
	d="
M77.590454,64.838501 
	C77.936592,65.554985 77.965866,66.370102 77.995972,67.593193 
	C76.897346,67.994240 75.797882,67.987320 74.286270,67.966408 
	C75.007278,66.947327 76.140442,65.942230 77.590454,64.838501 
z"/>
<path fill="#020202" opacity="1.000000" stroke="none" 
	d="
M120.126236,70.670288 
	C118.658081,70.701553 117.303566,70.403229 115.949059,70.104904 
	C116.025581,69.734131 116.102097,69.363365 116.178612,68.992592 
	C117.209839,68.992592 118.241058,68.992592 119.619110,68.996140 
	C120.057259,69.446693 120.148575,69.893700 120.126236,70.670288 
z"/>
<path fill="#DA1010" opacity="1.000000" stroke="none" 
	d="
M34.812424,64.743057 
	C33.925606,66.620636 32.836639,68.267517 31.399397,69.954834 
	C32.237507,68.167625 33.423889,66.339989 34.812424,64.743057 
z"/>
<path fill="#2A2A2A" opacity="1.000000" stroke="none" 
	d="
M92.470711,69.148376 
	C91.998177,69.005371 91.988579,68.804718 91.996078,68.303261 
	C92.764915,68.002037 93.516632,68.001625 94.644768,67.989693 
	C98.693954,67.989166 102.366737,68.000145 106.516220,68.261368 
	C106.992935,68.511620 107.004478,69.007431 107.004478,69.007431 
	C102.314201,69.035202 97.623917,69.062965 92.470711,69.148376 
z"/>
<path fill="#020202" opacity="1.000000" stroke="none" 
	d="
M107.199997,69.256058 
	C107.004478,69.007431 106.992935,68.511620 106.973892,68.264496 
	C108.002037,68.341507 109.049217,68.665627 110.096397,68.989746 
	C110.051186,69.254921 110.005966,69.520096 109.960754,69.785263 
	C109.105675,69.691742 108.250587,69.598221 107.199997,69.256058 
z"/>
<path fill="#0E0D0D" opacity="1.000000" stroke="none" 
	d="
M111.390915,76.013596 
	C111.014473,75.851822 111.008659,75.684036 110.996269,75.264671 
	C112.252388,75.013084 113.515083,75.013084 114.777779,75.013084 
	C114.799316,75.252029 114.820854,75.490974 114.842392,75.729927 
	C113.815445,75.822479 112.788490,75.915039 111.390915,76.013596 
z"/>
<path fill="#000000" opacity="1.000000" stroke="none" 
	d="
M89.992134,69.204132 
	C89.992134,71.842300 89.992134,74.480476 89.992134,77.994370 
	C85.417023,77.994370 81.179283,77.994370 76.477036,77.994476 
	C78.301491,76.351807 80.644127,74.777344 82.857559,73.038429 
	C84.025581,72.120819 84.968315,70.916451 86.423477,69.458939 
	C87.886841,69.118935 88.939491,69.161530 89.992134,69.204132 
z"/>
<path fill="#2A2A2A" opacity="1.000000" stroke="none" 
	d="
M90.011795,68.902496 
	C88.939491,69.161530 87.886841,69.118935 86.440659,69.098831 
	C84.978783,69.077667 83.910431,69.034012 82.443558,68.984352 
	C84.418861,68.653664 86.792702,68.328979 89.598831,68.000305 
	C90.031227,68.197838 90.031349,68.399353 90.011795,68.902496 
z"/>
<path fill="#0F0F0F" opacity="1.000000" stroke="none" 
	d="
M69.101006,75.360825 
	C68.830627,75.635704 68.429352,75.748718 68.020256,75.805130 
	C67.950012,75.814812 67.846519,75.583412 67.758377,75.463379 
	C68.161407,75.368858 68.564430,75.274345 69.101006,75.360825 
z"/>
</svg>